<svg id="Layer_1" data-name="Layer 1" xmlns="http://www.w3.org/2000/svg" viewBox="0 0 112 112"><title>working</title>
<defs>
    <style>
        /* Hide all of the icons first. */
        .icon {
            display: none;
        }

        .icon--small {
            display: block;
        }


        /* Display the desired icon and hide the others according to the viewport's size. */
        @media screen and (min-width: 100px) {

            .icon--large {
                display: block;
            }

            .icon--small {
                display: none;
            }
        }

        @media screen and (max-width: 69px){
            .icon--small * {
                stroke-width: 3;
            }
        }
    </style>
</defs>


<g class="icon icon--large">
<path d="M9.43,100.56,33.88,76.44s7.53,5.43,14.59,1.36c0,0,28.47-16.59,30.11-34.84a11,11,0,0,0-2.43-8.64L101.8,8.67S114.49,18.82,108.33,37c0,0-13.55,54.6-72.51,72.51C35.82,109.53,21.32,114.85,9.43,100.56Z" fill="none" stroke="#58595B" stroke-linecap="round" stroke-linejoin="round" stroke-width="2"/><polyline points="76.15 34.32 68.7 27.15 94.35 1.5 101.8 8.67" fill="none" stroke="#58595B" stroke-linecap="round" stroke-linejoin="round" stroke-width="2"/><polyline points="9.43 100.56 1.98 93.39 26.43 69.27 33.88 76.44" fill="none" stroke="#58595B" stroke-linecap="round" stroke-linejoin="round" stroke-width="2"/>
</g>

<g class="icon icon--small">
<path d="M9.43,100.56,33.88,76.44s7.53,5.43,14.59,1.36c0,0,28.47-16.59,30.11-34.84a11,11,0,0,0-2.43-8.64L101.8,8.67S114.49,18.82,108.33,37c0,0-13.55,54.6-72.51,72.51C35.82,109.53,21.32,114.85,9.43,100.56Z" fill="none" stroke="#58595B" stroke-linecap="round" stroke-linejoin="round" stroke-width="2"/><polyline points="76.15 34.32 68.7 27.15 94.35 1.5 101.8 8.67" fill="none" stroke="#58595B" stroke-linecap="round" stroke-linejoin="round" stroke-width="2"/><polyline points="9.43 100.56 1.98 93.39 26.43 69.27 33.88 76.44" fill="none" stroke="#58595B" stroke-linecap="round" stroke-linejoin="round" stroke-width="2"/>
</g>
</svg>
